<?xml version="1.0" encoding="UTF-8" standalone="no"?>
<!DOCTYPE svg PUBLIC "-//W3C//DTD SVG 1.1//EN"
 "http://www.w3.org/Graphics/SVG/1.1/DTD/svg11.dtd">
<!-- Generated by graphviz version 2.50.0 (20211204.2007)
 -->
<!-- Title: subobject_lattice Pages: 1 -->
<svg width="167pt" height="261pt"
 viewBox="0.00 0.00 166.92 260.89" xmlns="http://www.w3.org/2000/svg" xmlns:xlink="http://www.w3.org/1999/xlink">
<g id="graph0" class="graph" transform="scale(1 1) rotate(0) translate(4 256.89)">
<title>subobject_lattice</title>
<polygon fill="white" stroke="transparent" points="-4,4 -4,-256.89 162.92,-256.89 162.92,4 -4,4"/>
<!-- 1 -->
<g id="node1" class="node">
<title>1</title>
<ellipse fill="none" stroke="black" cx="70.31" cy="-10.61" rx="10.71" ry="10.71"/>
<text text-anchor="middle" x="70.31" y="-7.51" font-family="DejaVu Serif,serif" font-size="12.00">1</text>
</g>
<!-- 2 -->
<g id="node2" class="node">
<title>2</title>
<ellipse fill="none" stroke="black" cx="109.31" cy="-67.82" rx="10.71" ry="10.71"/>
<text text-anchor="middle" x="109.31" y="-64.72" font-family="DejaVu Serif,serif" font-size="12.00">2</text>
</g>
<!-- 1&#45;&gt;2 -->
<g id="edge1" class="edge">
<title>1&#45;&gt;2</title>
<path fill="none" stroke="black" d="M76.07,-19.75C82.52,-28.89 93.06,-43.8 100.54,-54.4"/>
<polygon fill="black" stroke="black" points="99.22,-55.57 103.54,-58.64 102.08,-53.55 99.22,-55.57"/>
</g>
<!-- 3 -->
<g id="node3" class="node">
<title>3</title>
<ellipse fill="none" stroke="black" cx="70.31" cy="-67.82" rx="10.71" ry="10.71"/>
<text text-anchor="middle" x="70.31" y="-64.72" font-family="DejaVu Serif,serif" font-size="12.00">3</text>
</g>
<!-- 1&#45;&gt;3 -->
<g id="edge2" class="edge">
<title>1&#45;&gt;3</title>
<path fill="none" stroke="black" d="M70.31,-21.22C70.31,-29.67 70.31,-42.1 70.31,-51.84"/>
<polygon fill="black" stroke="black" points="68.56,-51.94 70.31,-56.94 72.06,-51.94 68.56,-51.94"/>
</g>
<!-- 4 -->
<g id="node4" class="node">
<title>4</title>
<ellipse fill="none" stroke="black" cx="31.31" cy="-67.82" rx="10.71" ry="10.71"/>
<text text-anchor="middle" x="31.31" y="-64.72" font-family="DejaVu Serif,serif" font-size="12.00">4</text>
</g>
<!-- 1&#45;&gt;4 -->
<g id="edge3" class="edge">
<title>1&#45;&gt;4</title>
<path fill="none" stroke="black" d="M64.56,-19.75C58.11,-28.89 47.57,-43.8 40.09,-54.4"/>
<polygon fill="black" stroke="black" points="38.55,-53.55 37.09,-58.64 41.41,-55.57 38.55,-53.55"/>
</g>
<!-- 5 -->
<g id="node5" class="node">
<title>5</title>
<ellipse fill="none" stroke="black" cx="109.31" cy="-125.03" rx="10.71" ry="10.71"/>
<text text-anchor="middle" x="109.31" y="-121.93" font-family="DejaVu Serif,serif" font-size="12.00">5</text>
</g>
<!-- 2&#45;&gt;5 -->
<g id="edge4" class="edge">
<title>2&#45;&gt;5</title>
<path fill="none" stroke="black" d="M109.31,-78.44C109.31,-86.88 109.31,-99.31 109.31,-109.06"/>
<polygon fill="black" stroke="black" points="107.56,-109.15 109.31,-114.15 111.06,-109.15 107.56,-109.15"/>
</g>
<!-- 6 -->
<g id="node6" class="node">
<title>6</title>
<ellipse fill="none" stroke="black" cx="70.31" cy="-125.03" rx="10.71" ry="10.71"/>
<text text-anchor="middle" x="70.31" y="-121.93" font-family="DejaVu Serif,serif" font-size="12.00">6</text>
</g>
<!-- 2&#45;&gt;6 -->
<g id="edge5" class="edge">
<title>2&#45;&gt;6</title>
<path fill="none" stroke="black" d="M103.56,-76.97C97.11,-86.1 86.57,-101.02 79.09,-111.61"/>
<polygon fill="black" stroke="black" points="77.55,-110.76 76.09,-115.85 80.41,-112.78 77.55,-110.76"/>
</g>
<!-- 7 -->
<g id="node7" class="node">
<title>7</title>
<ellipse fill="none" stroke="black" cx="148.31" cy="-125.03" rx="10.71" ry="10.71"/>
<text text-anchor="middle" x="148.31" y="-121.93" font-family="DejaVu Serif,serif" font-size="12.00">7</text>
</g>
<!-- 2&#45;&gt;7 -->
<g id="edge6" class="edge">
<title>2&#45;&gt;7</title>
<path fill="none" stroke="black" d="M115.07,-76.97C121.52,-86.1 132.06,-101.02 139.54,-111.61"/>
<polygon fill="black" stroke="black" points="138.22,-112.78 142.54,-115.85 141.08,-110.76 138.22,-112.78"/>
</g>
<!-- 3&#45;&gt;6 -->
<g id="edge7" class="edge">
<title>3&#45;&gt;6</title>
<path fill="none" stroke="black" d="M70.31,-78.44C70.31,-86.88 70.31,-99.31 70.31,-109.06"/>
<polygon fill="black" stroke="black" points="68.56,-109.15 70.31,-114.15 72.06,-109.15 68.56,-109.15"/>
</g>
<!-- 8 -->
<g id="node8" class="node">
<title>8</title>
<ellipse fill="none" stroke="black" cx="31.31" cy="-125.03" rx="10.71" ry="10.71"/>
<text text-anchor="middle" x="31.31" y="-121.93" font-family="DejaVu Serif,serif" font-size="12.00">8</text>
</g>
<!-- 3&#45;&gt;8 -->
<g id="edge8" class="edge">
<title>3&#45;&gt;8</title>
<path fill="none" stroke="black" d="M64.56,-76.97C58.11,-86.1 47.57,-101.02 40.09,-111.61"/>
<polygon fill="black" stroke="black" points="38.55,-110.76 37.09,-115.85 41.41,-112.78 38.55,-110.76"/>
</g>
<!-- 4&#45;&gt;8 -->
<g id="edge10" class="edge">
<title>4&#45;&gt;8</title>
<path fill="none" stroke="black" d="M31.31,-78.44C31.31,-86.88 31.31,-99.31 31.31,-109.06"/>
<polygon fill="black" stroke="black" points="29.56,-109.15 31.31,-114.15 33.06,-109.15 29.56,-109.15"/>
</g>
<!-- 10 -->
<g id="node10" class="node">
<title>10</title>
<ellipse fill="none" stroke="black" cx="11.31" cy="-182.95" rx="11.13" ry="11.13"/>
<text text-anchor="middle" x="11.31" y="-179.85" font-family="DejaVu Serif,serif" font-size="12.00">10</text>
</g>
<!-- 4&#45;&gt;10 -->
<g id="edge9" class="edge">
<title>4&#45;&gt;10</title>
<path fill="none" stroke="black" d="M26.37,-77.21C21.43,-86.1 14.19,-100.72 11.31,-114.43 7.66,-131.85 8.34,-152.36 9.5,-166.17"/>
<polygon fill="black" stroke="black" points="7.77,-166.47 9.98,-171.29 11.26,-166.15 7.77,-166.47"/>
</g>
<!-- 9 -->
<g id="node9" class="node">
<title>9</title>
<ellipse fill="none" stroke="black" cx="99.31" cy="-182.95" rx="10.71" ry="10.71"/>
<text text-anchor="middle" x="99.31" y="-179.85" font-family="DejaVu Serif,serif" font-size="12.00">9</text>
</g>
<!-- 5&#45;&gt;9 -->
<g id="edge11" class="edge">
<title>5&#45;&gt;9</title>
<path fill="none" stroke="black" d="M107.62,-135.52C106.06,-144.22 103.73,-157.25 101.94,-167.29"/>
<polygon fill="black" stroke="black" points="100.21,-167 101.05,-172.23 103.65,-167.62 100.21,-167"/>
</g>
<!-- 5&#45;&gt;10 -->
<g id="edge12" class="edge">
<title>5&#45;&gt;10</title>
<path fill="none" stroke="black" d="M100.27,-131.19C83.16,-140.96 45.95,-162.19 25.49,-173.86"/>
<polygon fill="black" stroke="black" points="24.39,-172.48 20.91,-176.48 26.12,-175.52 24.39,-172.48"/>
</g>
<!-- 6&#45;&gt;9 -->
<g id="edge13" class="edge">
<title>6&#45;&gt;9</title>
<path fill="none" stroke="black" d="M74.84,-134.77C79.54,-143.83 86.94,-158.1 92.38,-168.58"/>
<polygon fill="black" stroke="black" points="90.86,-169.46 94.72,-173.09 93.97,-167.85 90.86,-169.46"/>
</g>
<!-- 7&#45;&gt;9 -->
<g id="edge14" class="edge">
<title>7&#45;&gt;9</title>
<path fill="none" stroke="black" d="M141.5,-133.81C133.16,-143.32 118.97,-159.52 109.38,-170.47"/>
<polygon fill="black" stroke="black" points="108.05,-169.33 106.07,-174.24 110.68,-171.64 108.05,-169.33"/>
</g>
<!-- 11 -->
<g id="node11" class="node">
<title>11</title>
<ellipse fill="none" stroke="black" cx="50.31" cy="-241.58" rx="11.13" ry="11.13"/>
<text text-anchor="middle" x="50.31" y="-238.48" font-family="DejaVu Serif,serif" font-size="12.00">11</text>
</g>
<!-- 8&#45;&gt;11 -->
<g id="edge15" class="edge">
<title>8&#45;&gt;11</title>
<path fill="none" stroke="black" d="M32.93,-135.8C36.24,-155.72 43.78,-201.17 47.75,-225.13"/>
<polygon fill="black" stroke="black" points="46.04,-225.54 48.59,-230.18 49.5,-224.96 46.04,-225.54"/>
</g>
<!-- 9&#45;&gt;11 -->
<g id="edge16" class="edge">
<title>9&#45;&gt;11</title>
<path fill="none" stroke="black" d="M92.5,-191.83C84.26,-201.35 70.29,-217.49 60.7,-228.57"/>
<polygon fill="black" stroke="black" points="59.33,-227.48 57.39,-232.41 61.98,-229.77 59.33,-227.48"/>
</g>
<!-- 10&#45;&gt;11 -->
<g id="edge17" class="edge">
<title>10&#45;&gt;11</title>
<path fill="none" stroke="black" d="M17.41,-192.8C23.78,-202.06 33.86,-216.69 41.18,-227.32"/>
<polygon fill="black" stroke="black" points="39.86,-228.48 44.13,-231.61 42.74,-226.5 39.86,-228.48"/>
</g>
</g>
</svg>
